<?xml version="1.0" standalone="no"?>
<!DOCTYPE svg PUBLIC "-//W3C//DTD SVG 20010904//EN"
 "http://www.w3.org/TR/2001/REC-SVG-20010904/DTD/svg10.dtd">
<svg version="1.0" xmlns="http://www.w3.org/2000/svg"
 width="8026.000000pt" height="8026.000000pt" viewBox="0 0 1026.000000 1026.000000"
 preserveAspectRatio="xMidYMid meet">
<metadata>
Created by potrace 1.16, written by Peter Selinger 2001-2019
</metadata>
<g transform="translate(0.000000,1026.000000) scale(0.100000,-0.100000)"
fill="#cd933e" stroke="none">
<path d="M4280 9010 c-7 -16 -42 -60 -79 -97 -62 -63 -152 -126 -396 -278 -66
-41 -122 -86 -176 -143 -73 -77 -86 -97 -174 -276 -80 -164 -104 -204 -158
-261 -82 -88 -99 -83 -51 15 60 125 93 236 100 340 8 117 -9 257 -40 325 l-22
49 -18 -139 c-22 -166 -52 -278 -105 -383 -58 -116 -145 -343 -181 -472 -17
-63 -38 -138 -46 -167 -8 -29 -19 -55 -24 -58 -13 -8 -13 1 5 87 47 217 67
446 46 518 -7 24 -9 22 -35 -28 -34 -68 -108 -264 -140 -375 -57 -196 -67
-295 -41 -402 19 -79 19 -170 -1 -255 -25 -111 -36 -101 -49 45 -11 130 -107
370 -181 455 l-39 45 3 -195 c6 -451 38 -635 130 -742 16 -18 36 -54 46 -80 9
-25 24 -52 32 -59 13 -10 12 -15 -8 -36 -22 -23 -22 -25 -10 -176 54 -736 395
-1357 977 -1779 312 -227 639 -363 1030 -429 154 -26 460 -36 605 -20 292 34
691 148 665 191 -10 16 -28 12 -168 -35 -142 -47 -318 -86 -479 -106 -161 -19
-494 -7 -658 24 -340 66 -619 178 -888 357 -590 394 -953 996 -1031 1712 -18
159 -14 275 10 347 38 112 90 175 235 283 202 151 277 247 334 424 30 96 54
211 48 239 -2 10 -27 -19 -68 -77 -40 -57 -141 -171 -265 -298 -110 -113 -216
-226 -234 -252 -19 -27 -38 -48 -43 -48 -15 0 -8 60 11 98 10 20 33 82 51 137
94 290 203 419 456 536 277 128 335 168 423 288 28 39 51 73 51 75 0 6 -315
-122 -418 -170 -93 -42 -190 -111 -232 -164 -79 -100 -43 -3 42 113 105 141
246 243 393 282 36 9 135 19 245 25 222 10 367 42 514 114 86 42 186 110 186
126 0 8 -41 1 -140 -24 -46 -12 -141 -20 -320 -26 -324 -12 -400 -30 -484
-119 -33 -34 -48 -38 -65 -17 -10 12 -1 28 47 83 90 104 141 148 373 321 262
195 360 294 419 425 20 43 27 122 11 131 -5 3 -14 -8 -21 -24z m-99 -197 c-55
-77 -166 -171 -386 -328 -60 -43 -136 -100 -167 -128 -32 -27 -58 -46 -58 -43
0 22 49 95 101 151 60 64 158 135 355 254 55 34 114 75 130 90 37 37 51 39 25
4z m-874 -476 c-8 -121 -33 -215 -80 -309 -40 -79 -134 -217 -149 -218 -4 0 6
30 21 68 15 37 31 80 35 96 4 17 36 91 72 166 35 76 69 162 75 195 14 75 17
85 25 85 4 0 4 -37 1 -83z m897 -186 c-19 -18 -177 -61 -262 -71 -113 -13
-362 -13 -362 0 0 21 73 50 185 74 42 8 449 6 439 -3z m-1288 -318 c-3 -16
-15 -86 -26 -157 -21 -134 -64 -316 -82 -349 -29 -55 -39 92 -13 197 25 97
108 336 118 336 5 0 6 -12 3 -27z m626 -46 c-40 -41 -163 -115 -279 -168 -49
-22 -110 -51 -136 -65 -27 -14 -50 -24 -52 -22 -2 2 22 31 55 65 63 66 112 95
250 148 48 18 110 45 136 58 27 14 51 23 53 21 3 -2 -10 -19 -27 -37z m-973
-480 c38 -62 81 -187 91 -263 6 -43 7 -148 3 -237 l-6 -160 -23 26 c-13 15
-37 71 -54 125 -28 84 -33 121 -42 272 -9 149 -6 270 7 270 2 0 12 -15 24 -33z
m711 -21 c0 -2 -9 -25 -20 -51 -32 -76 -108 -185 -179 -258 -63 -66 -241 -217
-254 -217 -4 0 -7 8 -7 19 0 43 58 117 191 243 77 73 165 163 196 200 47 58
73 81 73 64z"/>
<path d="M4890 8710 c-348 -21 -706 -132 -1007 -313 -108 -65 -124 -79 -104
-91 5 -3 100 41 212 97 396 200 756 282 1154 263 508 -24 970 -199 1361 -513
127 -103 300 -283 402 -418 488 -651 584 -1503 256 -2291 -62 -150 -68 -183
-28 -156 29 19 119 237 169 413 129 446 130 909 4 1339 -111 379 -307 702
-603 995 -406 402 -932 638 -1503 675 -87 5 -165 9 -173 8 -8 0 -71 -4 -140
-8z"/>
<path d="M3977 7744 c-3 -4 26 -23 65 -43 91 -45 105 -68 118 -192 13 -127 13
-1846 0 -1963 -16 -132 -55 -209 -121 -236 -17 -8 -29 -20 -29 -31 0 -18 11
-19 185 -19 102 0 185 -2 185 -4 0 -2 -21 -46 -46 -97 -73 -147 -73 -150 -22
-130 15 6 41 41 73 101 74 137 63 132 292 128 l192 -3 18 -40 c24 -57 93 -162
142 -217 57 -65 178 -143 257 -168 80 -24 195 -26 278 -5 194 51 387 236 474
456 69 173 85 342 81 837 l-4 394 105 27 c201 52 343 144 390 253 18 43 22 65
18 124 -13 202 -186 277 -403 176 -33 -16 -86 -53 -118 -82 -93 -85 -127 -167
-136 -325 l-6 -110 -135 -7 c-74 -4 -157 -11 -185 -15 -46 -8 -50 -11 -47 -33
2 -14 5 -26 6 -28 2 -1 34 2 72 8 38 5 119 10 181 10 l112 0 -3 -442 c-5 -547
-21 -685 -102 -878 -100 -236 -260 -352 -464 -338 -164 12 -330 150 -415 346
-21 50 -14 62 40 62 17 0 88 7 159 15 218 26 384 100 499 225 100 107 141 227
140 405 -1 199 -59 354 -181 486 -158 171 -324 239 -584 239 -78 0 -109 3
-106 12 2 6 54 32 116 58 227 96 421 258 499 417 35 70 38 84 41 180 4 103 4
105 -32 178 -62 125 -175 208 -341 251 -62 16 -134 18 -660 21 -325 2 -594 1
-598 -3z m1051 -69 c109 -22 249 -92 301 -151 61 -70 84 -140 78 -241 -7 -115
-60 -224 -160 -329 -127 -134 -400 -298 -617 -371 -47 -15 -87 -29 -90 -31 -9
-6 42 -90 75 -122 l34 -33 36 32 c124 108 382 157 545 103 70 -24 130 -56 130
-71 0 -5 -15 -12 -32 -15 -102 -19 -272 -134 -361 -244 -118 -145 -167 -274
-175 -459 l-5 -121 -61 -22 c-33 -12 -91 -39 -127 -61 -65 -38 -161 -131 -182
-176 -7 -16 -19 -23 -39 -23 -33 0 -32 -5 -12 67 19 66 21 461 8 1645 l-7 627
144 4 c382 8 441 7 517 -8z m1450 -599 c73 -38 112 -122 92 -197 -41 -151
-195 -260 -417 -294 l-43 -7 0 89 c0 202 65 333 195 395 67 31 130 36 173 14z
m-985 -718 c112 -151 148 -247 149 -398 2 -248 -105 -451 -284 -537 -130 -64
-374 -101 -412 -63 -15 15 -39 100 -49 171 l-5 36 103 6 c114 6 242 43 347 99
52 28 58 34 58 63 l0 31 -67 -33 c-78 -39 -216 -70 -352 -79 l-94 -7 5 139 c6
147 15 185 70 302 59 125 204 247 371 313 39 15 80 28 89 29 10 0 40 -30 71
-72z m-658 -1026 c-2 -2 -75 -1 -162 3 l-158 8 73 68 c41 37 104 83 140 103
l67 35 22 -107 c12 -58 21 -108 18 -110z"/>
<path d="M3570 3500 c48 -56 135 -183 204 -297 l37 -62 -3 -212 c-3 -205 -4
-211 -25 -229 -13 -10 -23 -21 -23 -24 0 -3 46 -6 103 -6 102 0 102 0 77 19
-29 23 -38 93 -39 303 l-1 137 40 46 c22 25 58 78 81 118 24 40 66 108 94 152
28 44 54 86 59 93 5 9 -13 12 -81 12 l-88 0 27 -25 c35 -32 43 -64 29 -108
-17 -50 -104 -187 -144 -225 l-34 -33 -20 33 c-70 117 -153 277 -153 295 0 12
12 31 26 42 l25 20 -119 3 -119 3 47 -55z"/>
<path d="M6308 3553 c-161 -2 -258 -7 -258 -13 0 -6 6 -10 14 -10 8 0 22 -10
30 -22 14 -19 16 -75 16 -404 0 -356 -1 -382 -18 -397 -10 -10 -24 -17 -30
-17 -7 0 -12 -4 -12 -10 0 -6 100 -10 281 -10 l282 0 -7 38 c-3 20 -6 55 -6
77 l-1 40 -22 -45 c-17 -33 -35 -51 -67 -68 -40 -21 -56 -23 -152 -20 -123 4
-135 10 -149 80 -4 23 -8 122 -9 219 l0 176 126 7 c69 3 130 3 136 0 6 -4 9
-1 6 7 -4 11 -33 14 -134 14 l-129 0 -3 154 c-1 85 1 158 6 163 5 5 74 10 155
11 141 2 146 1 171 -22 14 -13 28 -32 32 -43 11 -36 19 -17 16 42 -2 33 -7 59
-10 58 -4 -2 -123 -4 -264 -5z"/>
<path d="M8056 3553 c-3 -3 -6 -151 -6 -328 0 -358 -5 -396 -63 -462 -59 -68
-162 -92 -244 -58 -48 20 -70 41 -97 90 -20 38 -21 55 -24 351 -3 322 -4 320
36 397 2 4 -35 7 -82 7 -47 0 -86 -3 -86 -6 0 -4 8 -13 18 -20 15 -11 17 -43
22 -336 5 -310 6 -325 28 -373 49 -106 112 -145 237 -145 160 0 249 76 275
231 12 77 14 646 1 653 -4 3 -11 3 -15 -1z"/>
<path d="M8986 3529 c44 -48 121 -157 192 -275 l62 -101 0 -217 0 -217 -26
-24 -27 -25 103 0 103 0 -24 26 c-24 25 -24 30 -27 230 l-3 204 34 42 c20 24
63 90 97 148 35 58 79 130 100 160 20 30 39 60 43 66 5 9 -23 10 -162 4 -2 0
8 -9 23 -21 20 -16 26 -29 26 -61 0 -53 -68 -183 -133 -254 l-50 -55 -49 88
c-126 224 -138 261 -90 287 25 14 21 15 -80 16 -58 0 -115 3 -125 7 -12 4 -8
-4 13 -28z"/>
<path d="M680 3543 c0 -5 15 -15 33 -23 l32 -15 3 -387 2 -388 -41 -30 -42
-30 235 0 c287 0 318 7 393 83 73 75 95 177 61 275 -35 97 -123 159 -216 150
-28 -3 -50 -4 -50 -2 0 2 22 15 49 28 108 55 157 124 148 209 -6 64 -43 102
-118 122 -58 16 -489 22 -489 8z m431 -45 c49 -21 76 -53 84 -98 8 -50 -20
-115 -66 -154 -35 -30 -164 -96 -186 -96 -7 0 -13 -7 -13 -15 0 -12 6 -12 48
0 190 58 336 -80 286 -271 -17 -68 -44 -104 -97 -135 -38 -22 -54 -24 -164
-24 -95 0 -126 3 -137 15 -23 23 -28 787 -6 794 33 11 216 -2 251 -16z"/>
<path d="M1715 3533 c4 -10 10 -28 12 -39 8 -36 -54 -200 -153 -403 -126 -258
-137 -295 -114 -355 25 -65 93 -86 157 -47 51 32 167 218 233 375 13 32 24 46
30 40 13 -13 98 -255 111 -316 9 -39 8 -54 -5 -79 -9 -18 -16 -34 -16 -36 0
-1 47 -3 105 -3 58 0 105 3 105 6 0 3 -10 14 -23 24 -47 37 -114 208 -103 264
4 17 27 62 51 100 39 60 56 106 40 106 -9 0 -105 -152 -105 -166 0 -8 -3 -14
-7 -14 -8 0 -44 98 -133 355 -21 61 -48 131 -60 158 l-21 47 -56 0 c-49 0 -54
-2 -48 -17z m130 -326 l16 -59 -57 -111 c-31 -62 -72 -134 -91 -160 -58 -79
-123 -98 -152 -45 -14 24 -13 34 2 100 10 40 46 140 81 223 35 82 76 185 91
228 l28 78 33 -98 c19 -54 41 -124 49 -156z"/>
<path d="M2280 3540 c0 -5 6 -10 13 -10 33 0 37 -47 37 -422 l0 -371 -36 -33
-35 -34 120 0 c119 0 142 6 99 25 -42 18 -48 49 -48 236 l0 176 38 7 c49 8
322 8 390 -1 l53 -6 -3 -194 -3 -195 -30 -24 -30 -24 113 0 c61 0 112 3 112 6
0 3 -11 15 -24 25 -14 11 -27 35 -31 56 -4 21 -7 197 -7 391 0 367 2 382 43
382 10 0 21 5 24 10 4 6 -36 10 -112 10 l-118 0 30 -24 30 -24 3 -185 3 -185
-240 -1 -241 0 0 177 c0 189 7 222 51 222 10 0 19 5 19 10 0 6 -43 10 -110 10
-67 0 -110 -4 -110 -10z"/>
<path d="M3232 3535 c15 -8 29 -23 32 -32 6 -24 12 -386 9 -601 l-3 -174 -31
-29 -31 -29 113 0 c110 0 113 1 93 18 -43 34 -44 46 -44 432 l0 372 31 29 31
29 -113 0 c-106 -1 -112 -2 -87 -15z"/>
<path d="M4505 3541 c-3 -5 0 -21 7 -35 10 -23 6 -39 -26 -124 -21 -53 -88
-199 -149 -325 -129 -267 -139 -306 -89 -357 44 -44 114 -39 171 13 34 31 154
217 182 282 38 86 45 80 99 -99 30 -97 40 -206 20 -206 -5 0 -10 -4 -10 -10 0
-6 44 -10 111 -10 l111 0 -39 44 c-32 37 -51 81 -125 292 -48 137 -108 315
-134 397 l-46 147 -39 0 c-21 0 -40 -4 -44 -9z m77 -276 c39 -105 35 -153 -19
-265 -32 -65 -54 -96 -95 -131 -66 -57 -93 -72 -118 -64 -51 16 -36 84 82 371
42 100 78 192 82 205 7 24 7 24 23 -6 9 -16 29 -66 45 -110z"/>
<path d="M5275 3542 c6 -6 21 -12 35 -14 47 -6 50 -28 49 -388 0 -184 -3 -353
-7 -375 -6 -32 -15 -45 -46 -65 l-39 -25 179 -3 c253 -4 361 19 446 96 56 50
78 102 78 182 0 139 -88 230 -221 230 l-53 0 65 39 c87 52 129 107 129 170 0
60 -29 106 -85 135 -37 19 -60 21 -290 24 -166 2 -247 0 -240 -6z m408 -33
c21 -5 53 -23 71 -39 92 -82 31 -207 -144 -295 -75 -38 -86 -64 -20 -45 46 13
141 13 177 -1 47 -17 83 -60 100 -118 54 -187 -105 -329 -343 -305 l-62 7 -6
231 c-4 127 -7 309 -9 404 l-2 172 100 0 c55 0 117 -5 138 -11z"/>
<path d="M6956 3541 c-4 -5 -1 -21 6 -35 9 -20 9 -38 -1 -79 -18 -79 -94 -264
-179 -436 -90 -182 -101 -238 -59 -287 22 -25 32 -29 75 -29 35 0 59 6 79 21
40 30 135 164 190 271 26 51 51 93 55 93 10 0 85 -236 93 -294 6 -35 3 -52 -9
-71 l-16 -25 110 0 c60 0 110 3 110 6 0 3 -12 15 -26 27 -15 11 -38 46 -51 76
-22 50 -157 432 -239 676 l-30 90 -51 3 c-28 2 -54 -1 -57 -7z m74 -183 c67
-155 72 -203 36 -302 -57 -159 -195 -292 -253 -245 -26 23 -10 102 60 279 35
91 76 200 91 243 16 42 32 77 36 77 4 0 18 -24 30 -52z"/>
<path d="M8208 3488 c5 -87 6 -88 30 -41 36 69 62 83 157 83 123 0 115 25 114
-356 0 -376 -6 -449 -37 -475 -12 -9 -22 -20 -22 -23 0 -3 48 -6 107 -6 l107
0 -30 31 -29 30 -3 387 c-3 358 -2 388 14 399 11 8 50 13 105 13 100 0 126
-14 158 -83 l19 -42 1 35 c1 19 5 52 10 73 l9 37 -357 0 -357 0 4 -62z"/>
<path d="M3030 2065 c0 -104 2 -125 15 -125 12 0 15 19 15 107 l0 107 68 -107
c92 -147 102 -145 102 18 0 103 -3 125 -15 125 -11 0 -15 -20 -17 -101 l-3
-100 -65 100 c-90 140 -100 138 -100 -24z"/>
<path d="M3380 2128 c-13 -35 -34 -91 -46 -125 -18 -49 -20 -63 -10 -63 8 0
19 14 25 30 10 29 12 30 70 30 58 0 60 -1 66 -30 4 -16 13 -30 21 -30 20 0 19
4 -27 134 -50 140 -65 148 -99 54z"/>
<path d="M3830 2105 c0 -56 5 -96 15 -114 28 -55 117 -62 155 -13 17 21 20 40
20 118 0 77 -3 94 -15 94 -12 0 -15 -17 -15 -93 0 -101 -8 -122 -50 -132 -18
-4 -34 0 -53 15 -26 21 -27 25 -27 116 0 77 -3 94 -15 94 -12 0 -15 -16 -15
-85z"/>
<path d="M4110 2065 c0 -104 2 -125 15 -125 12 0 15 13 15 55 0 54 1 55 28 55
24 0 32 -8 55 -55 15 -30 34 -55 42 -55 20 0 19 6 -11 57 l-26 44 26 24 c18
17 26 34 26 58 0 51 -24 67 -103 67 l-67 0 0 -125z"/>
<path d="M4415 2078 c-49 -139 -49 -138 -35 -138 7 0 17 14 23 30 11 29 14 30
70 30 56 0 58 -1 68 -30 6 -16 17 -30 25 -30 8 0 14 1 14 3 0 2 -20 57 -44
123 -59 161 -68 162 -121 12z"/>
<path d="M5324 2171 c-55 -34 -70 -115 -31 -172 48 -71 155 -75 198 -6 29 46
22 128 -13 164 -36 35 -110 42 -154 14z m125 -27 c27 -22 31 -33 31 -73 0 -80
-50 -123 -117 -100 -95 31 -73 199 27 199 16 0 42 -11 59 -26z"/>
<path d="M5850 2065 c0 -104 2 -125 15 -125 12 0 15 18 16 98 l0 97 47 -97
c26 -53 49 -97 52 -97 3 -1 28 43 55 97 l50 97 3 -97 c4 -144 22 -122 22 27 0
95 -3 125 -13 125 -7 0 -35 -45 -62 -100 -27 -55 -52 -100 -55 -99 -3 0 -26
45 -52 100 -66 139 -78 135 -78 -26z"/>
</g>
</svg>
